<svg width="161" height="37" viewBox="0 0 161 37" fill="none" xmlns="http://www.w3.org/2000/svg">
<g clip-path="url(#clip0_3_9)">
<path d="M15.5405 0H18.0661V13.8908H15.5405V0Z" fill="url(#paint0_linear_3_9)"/>
<path d="M15.5344 23.0461H18.06V36.9369H15.5344V23.0461Z" fill="url(#paint1_linear_3_9)"/>
<path d="M0.00799561 10.5217L1.2708 8.33444L13.3005 15.2799L12.0378 17.467L0.00799561 10.5217Z" fill="url(#paint2_linear_3_9)"/>
<path d="M1.2628 28.5798L0 26.3925L16.7947 16.6961L18.0575 18.8833L1.2628 28.5798Z" fill="url(#paint3_linear_3_9)"/>
<path d="M32.3271 28.5798L33.5899 26.3925L16.7952 16.6961L15.5324 18.8833L32.3271 28.5798Z" fill="url(#paint4_linear_3_9)"/>
<path d="M33.6237 10.5217L32.3609 8.33444L20.3311 15.2799L21.5939 17.467L33.6237 10.5217Z" fill="url(#paint5_linear_3_9)"/>
<path d="M157.629 30.5515V29.0682C156.271 30.2871 154.604 30.8964 152.626 30.8964C151.108 30.8964 149.75 30.5399 148.554 29.8273C147.289 29.0912 146.276 28.0796 145.517 26.7919C144.782 25.481 144.414 24.0323 144.414 22.4456C144.414 20.859 144.794 19.4102 145.553 18.0996C146.312 16.7888 147.323 15.7655 148.588 15.0297C149.762 14.3398 151.085 13.9948 152.556 13.9948C154.512 13.9948 156.203 14.6043 157.629 15.823V14.3398H160.804V30.5515H157.629ZM157.525 25.481V19.4102C156.352 17.8696 154.812 17.0992 152.902 17.0992C151.383 17.0992 150.13 17.6282 149.14 18.6859C148.174 19.7208 147.692 20.974 147.692 22.4456C147.692 23.9174 148.198 25.1821 149.21 26.2398C150.245 27.2748 151.533 27.7921 153.074 27.7921C154.891 27.7921 156.375 27.0216 157.525 25.481Z" fill="white"/>
<path d="M145.096 14.0984L144.715 17.2372C144.371 17.1453 143.945 17.0992 143.439 17.0992C142.612 17.0992 141.783 17.3637 140.955 17.8926C140.15 18.3985 139.518 19.0424 139.057 19.8242V30.5515H135.78V14.3398H138.953V16.2025C139.39 15.5815 140.036 15.0642 140.885 14.6502C141.738 14.2133 142.715 13.9948 143.819 13.9948C144.279 13.9948 144.704 14.0293 145.096 14.0984Z" fill="white"/>
<path d="M113.541 27.3436C111.241 24.952 110.09 21.9972 110.09 18.4789C110.09 14.9606 111.241 12.0172 113.541 9.64871C115.864 7.25719 118.739 6.06143 122.167 6.06143C125.594 6.06143 128.458 7.25719 130.758 9.64871C133.081 12.0172 134.243 14.9606 134.243 18.4789C134.243 21.9972 133.081 24.952 130.758 27.3436C128.458 29.7123 125.594 30.8964 122.167 30.8964C118.739 30.8964 115.864 29.7123 113.541 27.3436ZM113.541 18.4789C113.541 21.1004 114.357 23.285 115.99 25.0326C117.647 26.7572 119.705 27.6196 122.167 27.6196C124.628 27.6196 126.675 26.7572 128.308 25.0326C129.965 23.285 130.793 21.1004 130.793 18.4789C130.793 15.8804 129.965 13.7074 128.308 11.9597C126.675 10.2121 124.628 9.33828 122.167 9.33828C119.705 9.33828 117.647 10.2121 115.99 11.9597C114.357 13.7074 113.541 15.8804 113.541 18.4789Z" fill="white"/>
<path d="M97.1491 28.6545L98.8397 26.2398C100.381 27.4357 101.98 28.0335 103.636 28.0335C104.395 28.0335 105.05 27.8496 105.603 27.4818C106.178 27.0908 106.465 26.5963 106.465 25.9984C106.465 25.6536 106.373 25.3546 106.189 25.1015C106.005 24.8256 105.717 24.6073 105.326 24.4464C104.959 24.2624 104.59 24.1244 104.222 24.0323C103.877 23.9174 103.406 23.791 102.808 23.6529C102.233 23.492 101.761 23.3539 101.393 23.2389C98.9088 22.4111 97.6667 21.0199 97.6667 19.0654C97.6667 17.4327 98.2647 16.1795 99.4609 15.3056C100.657 14.4318 102.06 13.9948 103.67 13.9948C105.786 13.9948 107.581 14.5928 109.053 15.7885L107.362 18.134C106.235 17.2832 105.074 16.8579 103.877 16.8579C103.049 16.8579 102.348 17.0417 101.773 17.4097C101.221 17.7776 100.944 18.2719 100.944 18.8929C100.944 19.3987 101.174 19.7782 101.634 20.0311C102.118 20.2841 102.854 20.537 103.843 20.79C104.625 20.9969 105.304 21.2154 105.879 21.4454C106.454 21.6523 107.063 21.9512 107.707 22.3422C108.351 22.7332 108.846 23.2389 109.191 23.8598C109.559 24.4578 109.743 25.1476 109.743 25.9294C109.743 27.4012 109.145 28.597 107.949 29.5167C106.776 30.4366 105.361 30.8964 103.705 30.8964C101.174 30.8964 98.9891 30.1491 97.1491 28.6545Z" fill="white"/>
<path d="M92.2332 30.5515V29.0682C90.8761 30.2871 89.2084 30.8964 87.2301 30.8964C85.7118 30.8964 84.3547 30.5399 83.1587 29.8273C81.8935 29.0912 80.8814 28.0796 80.1222 26.7919C79.3862 25.481 79.0181 24.0323 79.0181 22.4456C79.0181 20.859 79.3977 19.4102 80.1569 18.0996C80.9159 16.7888 81.928 15.7655 83.1932 15.0297C84.3663 14.3398 85.689 13.9948 87.1612 13.9948C89.1164 13.9948 90.8069 14.6043 92.2332 15.823V14.3398H95.4075V30.5515H92.2332ZM92.1296 25.481V19.4102C90.9564 17.8696 89.4154 17.0992 87.5062 17.0992C85.9879 17.0992 84.7342 17.6282 83.7452 18.6859C82.7793 19.7208 82.2961 20.974 82.2961 22.4456C82.2961 23.9174 82.802 25.1821 83.8144 26.2398C84.8492 27.2748 86.1374 27.7921 87.6787 27.7921C89.496 27.7921 90.9795 27.0216 92.1296 25.481Z" fill="white"/>
<path d="M73.8545 30.5516V6.06143H77.1323V30.5516H73.8545Z" fill="white"/>
<path d="M71.304 27.5852L71.9597 30.5516C71.2696 30.7815 70.4184 30.8965 69.4063 30.8965C67.4741 30.8965 65.9445 30.2641 64.8174 28.9994C63.9433 28.0336 63.5061 26.5963 63.5061 24.6878V17.2718H59.3658V14.3398H63.5061V9.85575H66.784V14.3398H71.9597V17.2718H66.784V24.8602C66.784 25.872 66.9451 26.5618 67.2671 26.9298C67.7271 27.5046 68.4747 27.7922 69.51 27.7922C70.2231 27.7922 70.8209 27.7232 71.304 27.5852Z" fill="white"/>
<path d="M58.5161 30.5516L55.9629 24.3428H45.7841L43.2655 30.5516H39.677L49.6833 6.40648H52.0986L62.1046 30.5516H58.5161ZM50.8909 12.0978L47.1644 21.066H54.6173L50.8909 12.0978Z" fill="white"/>
</g>
<defs>
<linearGradient id="paint0_linear_3_9" x1="16.8118" y1="0" x2="16.8118" y2="36.9369" gradientUnits="userSpaceOnUse">
<stop stop-color="#F28D7A"/>
<stop offset="1" stop-color="#FAC237"/>
</linearGradient>
<linearGradient id="paint1_linear_3_9" x1="16.8117" y1="-1.93583e-06" x2="16.8117" y2="36.9369" gradientUnits="userSpaceOnUse">
<stop stop-color="#F28D7A"/>
<stop offset="1" stop-color="#FAC237"/>
</linearGradient>
<linearGradient id="paint2_linear_3_9" x1="16.8117" y1="-4.13934e-06" x2="16.8117" y2="36.9369" gradientUnits="userSpaceOnUse">
<stop stop-color="#F28D7A"/>
<stop offset="1" stop-color="#FAC237"/>
</linearGradient>
<linearGradient id="paint3_linear_3_9" x1="16.8118" y1="-7.82981e-07" x2="16.8118" y2="36.9369" gradientUnits="userSpaceOnUse">
<stop stop-color="#F28D7A"/>
<stop offset="1" stop-color="#FAC237"/>
</linearGradient>
<linearGradient id="paint4_linear_3_9" x1="16.8118" y1="-7.82981e-07" x2="16.8118" y2="36.9369" gradientUnits="userSpaceOnUse">
<stop stop-color="#F28D7A"/>
<stop offset="1" stop-color="#FAC237"/>
</linearGradient>
<linearGradient id="paint5_linear_3_9" x1="16.8118" y1="-4.13934e-06" x2="16.8118" y2="36.9369" gradientUnits="userSpaceOnUse">
<stop stop-color="#F28D7A"/>
<stop offset="1" stop-color="#FAC237"/>
</linearGradient>
<clipPath id="clip0_3_9">
<rect width="160.881" height="37" fill="white"/>
</clipPath>
</defs>
</svg>
