<svg width="21" height="24" viewBox="0 0 21 24" fill="none" xmlns="http://www.w3.org/2000/svg">
<path d="M8.328 10.068C7.99466 10.0969 7.68427 10.2498 7.45812 10.4964C7.23198 10.743 7.10652 11.0654 7.10652 11.4C7.10652 11.7346 7.23198 12.057 7.45812 12.3037C7.68427 12.5503 7.99466 12.7031 8.328 12.732C8.49588 12.7251 8.66074 12.6851 8.81315 12.6144C8.96556 12.5436 9.10253 12.4436 9.21622 12.3198C9.3299 12.1961 9.41808 12.0512 9.4757 11.8934C9.53331 11.7355 9.55924 11.5679 9.552 11.4C9.56019 11.2319 9.53491 11.0639 9.47764 10.9057C9.42037 10.7474 9.33224 10.6021 9.21838 10.4782C9.10451 10.3543 8.96717 10.2542 8.81433 10.1838C8.66148 10.1134 8.49618 10.074 8.328 10.068ZM12.708 10.068C12.4397 10.0453 12.1708 10.104 11.9365 10.2367C11.7021 10.3693 11.5133 10.5696 11.3947 10.8113C11.2761 11.0531 11.2332 11.325 11.2717 11.5915C11.3103 11.858 11.4283 12.1066 11.6105 12.3049C11.7927 12.5031 12.0305 12.6418 12.2928 12.7026C12.5551 12.7635 12.8297 12.7437 13.0806 12.6459C13.3314 12.5482 13.5469 12.3769 13.6989 12.1546C13.8508 11.9323 13.932 11.6693 13.932 11.4C13.9392 11.2322 13.9133 11.0645 13.8557 10.9067C13.7981 10.7488 13.7099 10.6039 13.5962 10.4802C13.4825 10.3565 13.3456 10.2564 13.1931 10.1857C13.0407 10.1149 12.8759 10.075 12.708 10.068Z" fill="white"/>
<path d="M18.54 0H2.46C2.13616 0.000786973 1.81565 0.0653515 1.51676 0.190007C1.21787 0.314663 0.946462 0.496969 0.71803 0.726515C0.489597 0.956062 0.308615 1.22835 0.185415 1.52784C0.0622149 1.82734 -0.000789202 2.14816 -3.11737e-07 2.472V18.7C-0.000789202 19.0238 0.0622149 19.3447 0.185415 19.6442C0.308615 19.9436 0.489597 20.2159 0.71803 20.4455C0.946462 20.675 1.21787 20.8573 1.51676 20.982C1.81565 21.1066 2.13616 21.1712 2.46 21.172H16.068L15.432 18.952L16.968 20.38L18.42 21.72L21 24V2.472C21.0008 2.14816 20.9378 1.82734 20.8146 1.52784C20.6914 1.22835 20.5104 0.956062 20.282 0.726515C20.0535 0.496969 19.7821 0.314663 19.4832 0.190007C19.1844 0.0653515 18.8638 0.000786973 18.54 0ZM13.908 15.672C13.908 15.672 13.476 15.156 13.116 14.7C13.9858 14.4952 14.7552 13.9893 15.288 13.272C14.8562 13.5594 14.3933 13.7969 13.908 13.98C13.3497 14.2183 12.7659 14.3914 12.168 14.496C11.1403 14.6852 10.0862 14.6812 9.06 14.484C8.45886 14.3659 7.86975 14.1932 7.3 13.968C6.81882 13.7842 6.35991 13.5467 5.932 13.26C6.44553 13.9624 7.18834 14.4632 8.032 14.676C7.672 15.132 7.232 15.676 7.232 15.676C6.51918 15.6952 5.81258 15.5388 5.17436 15.2208C4.53615 14.9027 3.98589 14.4327 3.572 13.852C3.61036 11.4179 4.20123 9.02433 5.3 6.852C6.26642 6.09298 7.44465 5.65272 8.672 5.592L8.792 5.736C7.63451 6.02081 6.55415 6.55757 5.628 7.308C5.628 7.308 5.892 7.164 6.336 6.96C7.19834 6.56489 8.11766 6.3084 9.06 6.2C9.12586 6.18632 9.19277 6.17829 9.26 6.176C10.0641 6.07122 10.8779 6.06317 11.684 6.152C12.9533 6.2975 14.1817 6.69023 15.3 7.308C14.4231 6.5942 13.4047 6.07475 12.312 5.784L12.48 5.592C13.7074 5.65272 14.8856 6.09298 15.852 6.852C16.9508 9.02433 17.5416 11.4179 17.58 13.852C17.1624 14.4314 16.6096 14.9001 15.9696 15.2173C15.3297 15.5344 14.622 15.6905 13.908 15.672Z" fill="white"/>
</svg>
